<svg width="51" height="51" viewBox="0 0 51 51" fill="none" xmlns="http://www.w3.org/2000/svg">
<path d="M16.575 4.25H34.425C41.225 4.25 46.75 9.775 46.75 16.575V34.425C46.75 37.6938 45.4515 40.8287 43.1401 43.1401C40.8287 45.4515 37.6938 46.75 34.425 46.75H16.575C9.775 46.75 4.25 41.225 4.25 34.425V16.575C4.25 13.3062 5.54852 10.1713 7.85991 7.85991C10.1713 5.54852 13.3062 4.25 16.575 4.25ZM16.15 8.5C14.1211 8.5 12.1753 9.30598 10.7406 10.7406C9.30598 12.1753 8.5 14.1211 8.5 16.15V34.85C8.5 39.0788 11.9212 42.5 16.15 42.5H34.85C36.8789 42.5 38.8247 41.694 40.2594 40.2594C41.694 38.8247 42.5 36.8789 42.5 34.85V16.15C42.5 11.9212 39.0788 8.5 34.85 8.5H16.15ZM36.6562 11.6875C37.3607 11.6875 38.0364 11.9674 38.5345 12.4655C39.0326 12.9636 39.3125 13.6393 39.3125 14.3438C39.3125 15.0482 39.0326 15.7239 38.5345 16.222C38.0364 16.7201 37.3607 17 36.6562 17C35.9518 17 35.2761 16.7201 34.778 16.222C34.2799 15.7239 34 15.0482 34 14.3438C34 13.6393 34.2799 12.9636 34.778 12.4655C35.2761 11.9674 35.9518 11.6875 36.6562 11.6875ZM25.5 14.875C28.3179 14.875 31.0204 15.9944 33.013 17.987C35.0056 19.9796 36.125 22.6821 36.125 25.5C36.125 28.3179 35.0056 31.0204 33.013 33.013C31.0204 35.0056 28.3179 36.125 25.5 36.125C22.6821 36.125 19.9796 35.0056 17.987 33.013C15.9944 31.0204 14.875 28.3179 14.875 25.5C14.875 22.6821 15.9944 19.9796 17.987 17.987C19.9796 15.9944 22.6821 14.875 25.5 14.875ZM25.5 19.125C23.8092 19.125 22.1877 19.7966 20.9922 20.9922C19.7966 22.1877 19.125 23.8092 19.125 25.5C19.125 27.1908 19.7966 28.8123 20.9922 30.0078C22.1877 31.2034 23.8092 31.875 25.5 31.875C27.1908 31.875 28.8123 31.2034 30.0078 30.0078C31.2034 28.8123 31.875 27.1908 31.875 25.5C31.875 23.8092 31.2034 22.1877 30.0078 20.9922C28.8123 19.7966 27.1908 19.125 25.5 19.125Z" fill="black"/>
</svg>
