<svg width="46" height="46" viewBox="0 0 46 46" fill="none" xmlns="http://www.w3.org/2000/svg">
<path d="M36.2269 2.20996H43.2802L27.8703 19.8241L46 43.7882H31.8052L20.6885 29.2522L7.96567 43.7882H0.9085L17.3918 24.9474L0 2.21188H14.5552L24.6042 15.4982L36.2269 2.20996ZM33.7525 39.5677H37.6606L12.4315 6.21004H8.23783L33.7525 39.5677Z" fill="black"/>
<path d="M19.169 24.1307C18.7661 24.1307 18.4203 23.9864 18.1317 23.6978C17.8432 23.4092 17.6989 23.0634 17.6989 22.6605C17.6989 22.2576 17.8432 21.9118 18.1317 21.6232C18.4203 21.3346 18.7661 21.1903 19.169 21.1903C19.572 21.1903 19.9177 21.3346 20.2063 21.6232C20.4949 21.9118 20.6392 22.2576 20.6392 22.6605C20.6392 22.9273 20.5711 23.1723 20.435 23.3956C20.3043 23.6188 20.1274 23.7985 19.9041 23.9347C19.6863 24.0653 19.4413 24.1307 19.169 24.1307Z" fill="black"/>
<path d="M16 28.5739H22.3381V30.142H16V28.5739Z" fill="black"/>
<a href="https://x.com/sonethingwet">
<rect fill="black" fill-opacity="0" y="0.082386" width="6.33807" height="27.8352"/>
</a>
</svg>
